<svg id="Layer_1" enable-background="new 0 0 512 512" height="512" viewBox="0 0 512 512" width="512" xmlns="http://www.w3.org/2000/svg"><g><path d="m330.499 108.188v-10.85c0-8.444-6.845-15.289-15.289-15.289h-109.984c-13.103 0-23.725 10.622-23.725 23.725v298.605c0 14.123 11.449 25.571 25.571 25.571h89.472c18.753 0 33.956-15.203 33.956-33.956v-79.647c0-4.969-4.028-8.998-8.998-8.998h-62.999c-20.583 0-37.269-16.686-37.269-37.269 0-20.583 16.686-37.269 37.269-37.269h74.365c39.837 0 72.132 32.295 72.132 72.132v109.557c0 49.706-40.294 90-90 90h-118c-49.706 0-90-40.294-90-90v-317c0-49.706 40.294-90 90-90h135.441c40.073 0 72.559 32.486 72.559 72.559v28.129c0 20.573-16.677 37.25-37.25 37.25-20.573 0-37.251-16.678-37.251-37.25z" fill="#ae6c6c"/><g fill="#9b5e5e"><path d="m332.868 232.813h-30c39.838 0 72.132 32.295 72.132 72.132v109.555c0 49.706-40.294 90-90 90h30c49.706 0 90-40.294 90-90v-109.555c0-39.838-32.295-72.132-72.132-72.132z"/><path d="m181.5 404.379v-298.605c0-13.103 10.622-23.725 23.725-23.725h-30c-13.103 0-23.725 10.622-23.725 23.725v298.605c0 14.123 11.449 25.571 25.571 25.571h30c-14.122.001-25.571-11.448-25.571-25.571z"/><path d="m332.441 7.5h-30c40.073 0 72.559 32.486 72.559 72.559v28.129c0 15.235-9.15 28.325-22.25 34.097 4.59 2.022 9.662 3.154 15 3.154 20.573 0 37.25-16.677 37.25-37.25v-28.13c0-40.073-32.486-72.559-72.559-72.559z"/></g><path d="m197 504.5h118c38.038 0 70.564-23.598 83.738-56.953-21.17-23.821-44.251-44.355-68.239-62.056v10.504c0 18.753-15.203 33.956-33.956 33.956h-89.472c-14.123 0-25.571-11.449-25.571-25.571v-95.49c-26.823-9.184-52.155-15.872-74.5-20.737v126.347c0 49.706 40.294 90 90 90z" fill="#e49280"/><g fill="#dd7f66"><path d="m374.636 422.563c-4.079 45.927-42.649 81.937-89.636 81.937h30c38.038 0 70.564-23.598 83.738-56.952-7.791-8.767-15.843-17.086-24.102-24.985z"/><path d="m181.5 404.379v-95.489c-10.246-3.508-20.272-6.65-30-9.467v104.956c0 14.123 11.449 25.571 25.571 25.571h30c-14.122.001-25.571-11.448-25.571-25.571z"/></g><g><path d="m367.75 152.938c24.675 0 44.75-20.075 44.75-44.75v-28.129c0-44.144-35.915-80.059-80.059-80.059h-39.503c-4.142 0-7.5 3.358-7.5 7.5s3.358 7.5 7.5 7.5h39.503c35.874 0 65.059 29.186 65.059 65.059v28.128c0 16.404-13.346 29.75-29.75 29.75s-29.75-13.345-29.75-29.749v-10.85c0-12.566-10.223-22.789-22.789-22.789h-109.985c-17.218 0-31.225 14.007-31.225 31.225v192.71c-19.364-6.284-39.322-11.752-59.5-16.33v-95.191c0-4.142-3.358-7.5-7.5-7.5s-7.5 3.358-7.5 7.5v227.537c0 53.762 43.738 97.5 97.5 97.5h118c53.762 0 97.5-43.738 97.5-97.5v-15.444c0-4.142-3.358-7.5-7.5-7.5s-7.5 3.358-7.5 7.5v15.444c0 6.304-.734 12.436-2.08 18.338-17.345-18.344-36.614-35.494-57.421-51.106v-65.384c0-9.097-7.401-16.498-16.498-16.498h-62.999c-16.415 0-29.769-13.354-29.769-29.769s13.354-29.769 29.769-29.769h74.365c35.638 0 64.632 28.994 64.632 64.632v57.274c0 4.142 3.358 7.5 7.5 7.5s7.5-3.358 7.5-7.5v-57.274c0-43.909-35.723-79.632-79.632-79.632h-74.365c-24.686 0-44.769 20.083-44.769 44.769s20.083 44.769 44.769 44.769h62.999c.826 0 1.498.672 1.498 1.498v79.647c0 14.588-11.868 26.456-26.456 26.456h-89.472c-9.964 0-18.071-8.107-18.071-18.071v-298.606c0-8.947 7.279-16.225 16.225-16.225h109.984c4.295 0 7.789 3.494 7.789 7.789v10.849c.001 24.676 20.076 44.751 44.751 44.751zm-160.678 284.513h89.472c21.347 0 38.972-16.22 41.211-36.983 18.938 14.944 36.436 31.212 52.169 48.505-13.082 28.319-41.736 48.027-74.924 48.027h-118c-45.491 0-82.5-37.009-82.5-82.5v-116.963c20.221 4.696 40.178 10.32 59.5 16.754v90.088c0 18.236 14.836 33.072 33.072 33.072z"/><path d="m107 159.859c4.142 0 7.5-3.358 7.5-7.5v-54.859c0-45.491 37.009-82.5 82.5-82.5h59c4.142 0 7.5-3.358 7.5-7.5s-3.358-7.5-7.5-7.5h-59c-53.762 0-97.5 43.738-97.5 97.5v54.859c0 4.142 3.358 7.5 7.5 7.5z"/></g></g></svg>